<?xml version="1.0" encoding="UTF-8"?>
<svg version="1.1" xmlns="http://www.w3.org/2000/svg" width="1024" height="1024">
<path d="M0 0 C337.92 0 675.84 0 1024 0 C1024 337.92 1024 675.84 1024 1024 C686.08 1024 348.16 1024 0 1024 C0 686.08 0 348.16 0 0 Z " fill="#F8F7F6" transform="translate(0,0)"/>
<path d="M0 0 C2 3 2 3 1.65327454 5.05326843 C1.37364365 5.83966202 1.09401276 6.6260556 0.8059082 7.4362793 C0.33970818 8.77863899 0.33970818 8.77863899 -0.13591003 10.14811707 C-0.48680191 11.11373062 -0.83769379 12.07934418 -1.19921875 13.07421875 C-1.72549614 14.5709185 -1.72549614 14.5709185 -2.2624054 16.09785461 C-3.39148439 19.29903376 -4.53929683 22.49313681 -5.6875 25.6875 C-6.44327836 27.82183363 -7.19785045 29.95659482 -7.95117188 32.09179688 C-10.89813823 40.42249186 -13.89712915 48.72567774 -17 57 C-9.08 57 -1.16 57 7 57 C8.00586822 62.02934111 7.91813926 63.22465352 6.1875 67.75 C5.83042969 68.71421875 5.47335937 69.6784375 5.10546875 70.671875 C4 73 4 73 2 74 C0.0406396 74.08510205 -1.92162794 74.10717656 -3.8828125 74.09765625 C-5.63271484 74.09282227 -5.63271484 74.09282227 -7.41796875 74.08789062 C-8.64128906 74.07951172 -9.86460937 74.07113281 -11.125 74.0625 C-12.35605469 74.05798828 -13.58710937 74.05347656 -14.85546875 74.04882812 C-17.90369392 74.0370133 -20.95182314 74.02054028 -24 74 C-24.36121948 75.8552832 -24.36121948 75.8552832 -24.72973633 77.74804688 C-26.0593942 83.71070075 -28.17844306 89.32155445 -30.32421875 95.03125 C-31.19747216 97.39445494 -32.07051175 99.7577389 -32.94335938 102.12109375 C-34.3042847 105.78536636 -35.66823489 109.4484614 -37.03686523 113.10986328 C-49.94475491 144.88389708 -49.94475491 144.88389708 -55.25 178.4375 C-55.25515625 179.24058594 -55.2603125 180.04367187 -55.265625 180.87109375 C-55.1239426 183.29878631 -55.1239426 183.29878631 -53 186 C-49.40416636 186.64725006 -47.0279975 186.63261384 -43.8671875 184.6875 C-42.48536698 183.62691451 -41.12673027 182.53521381 -39.796875 181.41015625 C-38 180 -38 180 -35 179 C-34.30083082 177.68341932 -33.63846531 176.34706506 -33 175 C-31.86772116 173.69843437 -30.69635043 172.43042965 -29.5 171.1875 C-21.52851283 162.35267486 -15.47650969 152.09968368 -9.6875 141.75 C-9.29127441 141.04238525 -8.89504883 140.33477051 -8.48681641 139.60571289 C-3.15423451 129.87559863 0.96868566 119.73845974 4.7578125 109.32421875 C5.18754364 108.15542679 5.61727478 106.98663483 6.06002808 105.78242493 C7.41899536 102.0855612 8.77257181 98.38676048 10.125 94.6875 C11.48455699 90.97039028 12.84594554 87.25396709 14.21139526 83.53901672 C15.05729116 81.23749929 15.89999136 78.93480407 16.73904419 76.63078308 C21.60119774 63.39880226 21.60119774 63.39880226 24 61 C26.52094076 60.91152257 29.01430893 60.88472699 31.53515625 60.90234375 C32.66503212 60.90446617 32.66503212 60.90446617 33.81773376 60.90663147 C36.2326956 60.91224624 38.64756601 60.92480117 41.0625 60.9375 C42.69596221 60.9425131 44.32942586 60.94707634 45.96289062 60.95117188 C49.97529585 60.96222046 53.98763241 60.97949494 58 61 C59.22040202 64.48289531 58.7883332 66.35515916 57.45214844 69.75146484 C57.08679489 70.69643829 56.72144135 71.64141174 56.34501648 72.61502075 C55.93725479 73.63667328 55.5294931 74.65832581 55.109375 75.7109375 C54.69343582 76.77907684 54.27749664 77.84721619 53.84895325 78.94772339 C52.95566251 81.23853392 52.05744268 83.52742725 51.15481567 85.8145752 C49.27995072 90.56631295 47.4293614 95.32736358 45.57789612 100.08825684 C44.65999284 102.44817029 43.74091817 104.80762847 42.82066345 107.16662598 C38.03306612 119.44632807 33.39956508 131.77476243 28.99414062 144.19726562 C28.36189077 145.9797382 27.72327331 147.75997457 27.07617188 149.53710938 C23.52671748 159.32899168 20.05113925 170.3023216 24.46875 180.3359375 C25.75532681 182.84222101 25.75532681 182.84222101 27 184 C32.98247191 184.93476124 37.58328149 183.90702512 42.68359375 180.72265625 C61.06903028 167.04984426 69.80032848 144.89131579 77.1875 124 C77.61095703 122.85442627 78.03441406 121.70885254 78.47070312 120.52856445 C80.94307929 113.24920389 81.39195426 108.93119192 78 102 C74.40006326 92.86727457 74.18205636 79.68051471 77.4375 70.375 C80.23456597 64.71018408 85.2718659 57.86406705 91 55 C96.16199862 54.40076301 101.33724345 54.03013717 105.875 56.875 C111.51193346 61.84636782 113.92792729 67.32845868 114.4453125 74.79296875 C115.04134661 91.34015623 110.88811513 105.09871093 104 120 C107.81234923 123.3502463 111.33285711 125.16974789 116 127 C116.26103516 126.48727539 116.52207031 125.97455078 116.79101562 125.44628906 C132.7925771 94.15777174 152.09885809 69.42271295 186.2890625 57.890625 C190.57848164 56.86116441 194.48291289 56.65508607 198.875 56.6875 C200.06863159 56.69595947 200.06863159 56.69595947 201.28637695 56.70458984 C209.63168286 56.87739884 216.16573341 58.30872704 222.4296875 64.12109375 C229.91142159 73.07311887 230.63455919 82.78945428 230 94 C227.59570542 110.50405599 218.14641218 124.48511113 205.57421875 135.1484375 C190.79486688 145.77880591 174.14169178 147.77921502 156.3984375 145.546875 C153.90983365 145.09673994 151.45488737 144.60561098 149 144 C144.52857437 164.42018013 144.52857437 164.42018013 150 184 C153.80517204 188.83359692 158.12687865 191.45710094 164.28515625 192.3203125 C177.10120036 192.92963314 188.68922972 185.98589197 198 177.75 C199.67555352 176.17607414 201.34226123 174.59267837 203 173 C203.79019531 172.27296875 204.58039063 171.5459375 205.39453125 170.796875 C212.64670113 163.90789941 218.62096193 156.14227401 224.49414062 148.06933594 C225.42901435 146.78464241 226.37162861 145.5054986 227.32617188 144.23535156 C233.13653671 136.45875927 236.46818495 128.63620962 239.47851562 119.45678711 C242.76243422 109.45916794 246.46485082 99.63725407 250.21725464 89.80725098 C251.29953183 86.97147908 252.37652172 84.13373581 253.45336914 81.29589844 C254.13123401 79.51871264 254.80952035 77.74168752 255.48828125 75.96484375 C255.79739441 75.15005051 256.10650757 74.33525726 256.42498779 73.49577332 C258.07404065 69.20217527 259.85869011 65.07971587 262 61 C267.23274388 60.97532083 272.46545403 60.95714997 277.69824219 60.94506836 C279.47917267 60.94003289 281.260099 60.93320419 283.04101562 60.92456055 C285.59766665 60.91246058 288.15426312 60.90676391 290.7109375 60.90234375 C291.50994476 60.89718246 292.30895203 60.89202118 293.13217163 60.88670349 C298.77225659 60.88612829 298.77225659 60.88612829 301 62 C300.47022247 67.79441653 299.2848047 72.60522672 297.12109375 77.98828125 C296.83345657 78.72447693 296.5458194 79.46067261 296.24946594 80.21917725 C295.32123707 82.58731513 294.37970777 84.94989338 293.4375 87.3125 C292.79074913 88.95411259 292.14459291 90.59595957 291.49902344 92.23803711 C288.06948761 100.93441813 284.5407049 109.57994074 280.84423828 118.16650391 C276.11611073 129.26809669 272.06392938 140.6424923 268 152 C267.69336426 152.84353027 267.38672852 153.68706055 267.07080078 154.55615234 C263.96159311 163.1887104 261.43297426 171.74148958 263 181 C264.23617469 183.82085519 264.23617469 183.82085519 266 186 C269.70343239 186.74068648 271.53610883 186.24203018 274.875 184.5 C275.94019719 183.69696274 276.98006788 182.85979785 278 182 C278.59554687 181.49855469 279.19109375 180.99710938 279.8046875 180.48046875 C310.01616982 152.63494589 323.22261584 102.17362162 337.01171875 64.5078125 C338 62 338 62 339 61 C341.64288357 60.8990175 344.25906959 60.86029258 346.90234375 60.8671875 C348.09169273 60.86575241 348.09169273 60.86575241 349.30506897 60.86428833 C350.9855253 60.86360649 352.66598425 60.86546104 354.34643555 60.86962891 C356.92307445 60.8749701 359.49953848 60.86968772 362.07617188 60.86328125 C363.70572955 60.86394217 365.33528712 60.86522362 366.96484375 60.8671875 C367.73884018 60.86516327 368.51283661 60.86313904 369.31028748 60.86105347 C374.77008834 60.88504417 374.77008834 60.88504417 377 62 C376.35327888 67.0926157 374.84925591 71.52341869 373.04296875 76.2890625 C372.42458886 77.95120324 371.80634955 79.61339629 371.18823242 81.27563477 C370.69907852 82.5823967 370.69907852 82.5823967 370.20004272 83.91555786 C364.79269551 98.38496644 359.54998118 112.90055964 354.6875 127.5625 C354.44309174 128.29919922 354.19868347 129.03589844 353.9468689 129.79492188 C350.72178881 139.54479762 347.63518735 149.33382896 344.6100769 159.14730835 C308.33411017 276.74342781 308.33411017 276.74342781 260.41015625 304.1171875 C245.34222242 312.01556451 228.30937933 316.31217141 211.4375 311.875 C201.50019356 308.17015056 192.14540053 302.16051544 187.625 292.3125 C184.30586153 284.18782628 183.3137868 275.71839479 186.31640625 267.31640625 C192.44737129 253.88436235 201.04258704 245.66017036 214.98046875 240.453125 C222.27672898 237.92076675 229.21025979 236.15735983 237 237 C235.84066733 240.47799801 235.37928835 240.59101354 232.3125 242.25 C227.14276854 245.33141983 223.68835439 249.1604949 220.625 254.3125 C218.56164153 263.18494142 220.10475299 272.14012108 224.75 279.9375 C228.52088478 283.39414439 232.27686768 284.77241649 237.3125 285.4375 C245.41663595 284.47599235 252.5781554 281.15766637 258 275 C269.2916869 259.95305025 275.69489299 241.6524586 282.3125 224.25 C283.15015281 222.06557691 283.98870099 219.88149697 284.828125 217.69775391 C286.47384339 213.41519619 288.11638922 209.13144619 289.75634766 204.84667969 C292.63244936 197.3409374 295.55672141 189.85460864 298.5 182.375 C298.92579346 181.28864258 299.35158691 180.20228516 299.7902832 179.08300781 C301.78170686 174.01843005 303.82088257 168.98682642 306 164 C305.47792969 165.00417969 304.95585938 166.00835938 304.41796875 167.04296875 C299.24973795 176.74145078 293.47474503 184.96328319 286 193 C285.54866699 193.49902832 285.09733398 193.99805664 284.63232422 194.51220703 C275.85094374 204.17963671 265.42576829 212.57563836 251.87890625 213.3359375 C236.23706592 213.66527708 236.23706592 213.66527708 231 209 C223.19654752 200.56240691 221.90062776 192.16061329 221.8671875 180.94140625 C222.03373486 177.25287212 222.50688828 173.65920206 223 170 C222.28457031 170.79921875 221.56914063 171.5984375 220.83203125 172.421875 C201.9840518 193.28367798 179.40090823 213.52688926 150.1484375 216.375 C139.5041397 216.72186103 129.17247315 214.87085588 120.80859375 207.86328125 C110.19974888 196.93365057 107.40498137 182.4000039 107.44360352 167.67260742 C107.81702878 156.92166149 110.5123095 146.42164627 113 136 C108.05 134.68 103.1 133.36 98 132 C97.34 133.98 96.68 135.96 96 138 C94.58457291 141.10715098 92.97507933 144.10923487 91.375 147.125 C90.92769531 147.96885254 90.48039062 148.81270508 90.01953125 149.68212891 C75.47209929 176.76169688 55.03924068 202.09249197 25.44140625 212.9375 C16.44720071 215.31395064 5.33109791 215.44956365 -3 211 C-9.48145635 206.62501696 -13.63510079 201.39324759 -15.5625 193.77734375 C-16.14357143 190.08857781 -16.35937382 186.41370001 -16.5625 182.6875 C-16.60568359 181.94693359 -16.64886719 181.20636719 -16.69335938 180.44335938 C-16.79870432 178.62908536 -16.89978316 176.8145645 -17 175 C-17.57105469 175.78761719 -18.14210938 176.57523438 -18.73046875 177.38671875 C-29.13844197 191.48248769 -42.76689521 207.81639269 -60.45703125 212.62890625 C-67.96448003 213.72446329 -76.98154115 214.83801868 -83.75 210.8125 C-89.09037206 206.61062484 -92.54660137 201.69328318 -94 195 C-94.62075743 189.35328552 -94.81299305 183.67469353 -95 178 C-95.73089844 178.94746094 -95.73089844 178.94746094 -96.4765625 179.9140625 C-107.16836328 193.40517112 -119.68128707 208.38314923 -137 213 C-140.4375 213.30078125 -140.4375 213.30078125 -144 213.3125 C-145.175625 213.32925781 -146.35125 213.34601563 -147.5625 213.36328125 C-152.80821591 212.80890445 -155.98735663 211.01264337 -159.6875 207.3125 C-164.88640933 200.49917068 -165.48780854 193.27293208 -165.6875 185 C-165.72166016 184.03449219 -165.75582031 183.06898438 -165.79101562 182.07421875 C-165.87272699 179.71626218 -165.94212119 177.35864137 -166 175 C-166.71349609 176.03833984 -166.71349609 176.03833984 -167.44140625 177.09765625 C-179.35042829 193.74396882 -195.12870997 210.71798262 -216 215 C-223.39444469 215.95444599 -229.71530187 215.16999819 -236 211 C-242.80870066 205.51259174 -245.57706637 198.47024395 -247 190 C-249.61114268 162.86011438 -240.99594054 135.55848481 -228 112 C-227.49726563 111.08089844 -226.99453125 110.16179687 -226.4765625 109.21484375 C-220.97731812 99.6291443 -214.07547834 89.60571368 -206 82 C-205.34 82 -204.68 82 -204 82 C-204 81.34 -204 80.68 -204 80 C-190.63983342 67.77205093 -174.75907281 57.90958394 -156.3125 57.625 C-155.59916504 57.61082031 -154.88583008 57.59664063 -154.15087891 57.58203125 C-146.64162762 57.65186851 -141.15892906 60.30207485 -135.578125 65.3046875 C-133.1156878 67.94997895 -131.61253336 70.77493329 -130 74 C-129.5875 73.443125 -129.175 72.88625 -128.75 72.3125 C-128.1725 71.549375 -127.595 70.78625 -127 70 C-126.29810547 68.7625 -126.29810547 68.7625 -125.58203125 67.5 C-121.62072499 63.66454462 -117.26386027 63.46969277 -111.9375 62.6875 C-110.95072266 62.51927734 -109.96394531 62.35105469 -108.94726562 62.17773438 C-102.25663059 61.10425331 -95.76909404 60.79785058 -89 61 C-89.73084577 65.54033776 -91.25637795 69.72329867 -92.8515625 74.015625 C-93.14239212 74.8072554 -93.43322174 75.5988858 -93.73286438 76.414505 C-94.36332296 78.12915934 -94.99547155 79.84319301 -95.62911987 81.55667114 C-96.63847046 84.28643046 -97.64318104 87.01785823 -98.64672852 89.74975586 C-101.10363253 96.43517421 -103.56822013 103.11775354 -106.03277588 109.800354 C-122.16567083 146.04269337 -122.16567083 146.04269337 -129 184 C-128.34 184.99 -127.68 185.98 -127 187 C-121.7578499 187.11395978 -119.15067984 185.67473834 -115.1875 182.25 C-100.17094205 167.8005326 -89.68765622 148.75846687 -81 130 C-80.5354541 129.02015137 -80.5354541 129.02015137 -80.06152344 128.02050781 C-72.99268413 112.95445009 -68.38997399 96.97208669 -63.58615112 81.07757568 C-62.10659392 76.21318784 -62.10659392 76.21318784 -61 74 C-66.94 74 -72.88 74 -79 74 C-81 70 -81 70 -80.13671875 67.01953125 C-79.65847656 65.96121094 -79.18023437 64.90289062 -78.6875 63.8125 C-78.21699219 62.74644531 -77.74648438 61.68039062 -77.26171875 60.58203125 C-76 58 -76 58 -75 57 C-73.5112814 56.91330568 -72.018555 56.89296506 -70.52734375 56.90234375 C-69.62822266 56.90556641 -68.72910156 56.90878906 -67.80273438 56.91210938 C-66.38444336 56.92467773 -66.38444336 56.92467773 -64.9375 56.9375 C-63.5134082 56.94426758 -63.5134082 56.94426758 -62.06054688 56.95117188 C-59.70696631 56.96299891 -57.35352419 56.98031906 -55 57 C-54.89006714 56.4553157 -54.78013428 55.91063141 -54.66687012 55.34944153 C-53.48282533 49.73142227 -51.91100518 44.37027065 -50.03125 38.94921875 C-49.75027466 38.12799026 -49.46929932 37.30676178 -49.17980957 36.46064758 C-48.59044461 34.74144478 -47.99874267 33.02304147 -47.40478516 31.30541992 C-46.49703056 28.67890817 -45.5975835 26.04965826 -44.69921875 23.41992188 C-44.12288078 21.74202085 -43.54607438 20.06428063 -42.96875 18.38671875 C-42.56710632 17.21323128 -42.56710632 17.21323128 -42.15734863 16.01603699 C-39.52338965 8.4210265 -39.52338965 8.4210265 -38 6 C-33.25973569 3.81329234 -28.3211307 3.47014997 -23.1875 3 C-18.28954461 2.51094545 -13.48377807 2.02545859 -8.6875 0.875 C-3.05151915 -0.46235139 -3.05151915 -0.46235139 0 0 Z " fill="#0B0D0B" transform="translate(591,360)"/>
<path d="M0 0 C1 1 1 1 1.34765625 3.26953125 C0.86545018 7.05674525 -0.75670459 8.15768447 -3.5625 10.6875 C-12.33041517 19.08546094 -17.57083857 28.59761761 -22.76025391 39.43066406 C-24.15727181 42.32594102 -25.58405014 45.20565506 -27.01171875 48.0859375 C-49.66453868 94.06463533 -67.62680203 143.32458801 -76.8125 193.8125 C-77.1233252 195.51986328 -77.1233252 195.51986328 -77.44042969 197.26171875 C-79.48893639 209.00695113 -80.20535983 220.57234753 -80.24023438 232.49072266 C-80.24999094 234.49813529 -80.2811761 236.50454196 -80.3125 238.51171875 C-80.35246317 248.63239098 -79.69944311 259.67235504 -73.77734375 268.3125 C-68.4195062 273.39950181 -60.22858782 275.50714174 -53 276 C-52.67 277.32 -52.34 278.64 -52 280 C-61.69161891 288.9264911 -72.71048653 292.63814734 -85.76171875 292.3671875 C-95.31803869 291.28359996 -102.66895654 284.85771605 -109 278 C-123.40918937 259.05049713 -123.85341703 234.66716666 -120.82080078 212.0847168 C-119.98137459 206.37121603 -119.02059419 200.68369853 -118 195 C-117.75902588 193.62884033 -117.75902588 193.62884033 -117.51318359 192.22998047 C-109.25461867 146.95795113 -89.11875446 94.78631597 -63 57 C-67.4451389 60.62868481 -71.30532208 64.32595855 -75.0078125 68.703125 C-76.44025744 70.35464975 -77.9206371 71.96504082 -79.4296875 73.546875 C-92.95860271 87.74243241 -103.24948137 104.06470009 -113 121 C-113.57065186 121.98371582 -113.57065186 121.98371582 -114.15283203 122.98730469 C-124.09777435 140.17194714 -133.33540253 157.80503818 -142.3828125 175.47607422 C-175.12704771 239.35853534 -175.12704771 239.35853534 -191.8125 245.6875 C-194.92339512 246.13191359 -197.86383376 246.17423146 -201 246 C-203 244 -203 244 -203.23925781 241.35205078 C-203.15943257 234.10197665 -202.69937723 227.05937929 -201.75 219.875 C-200.32488036 208.30809256 -199.18383427 196.73013983 -198.125 185.125 C-197.95817668 183.30451672 -197.79126459 181.48404157 -197.62426758 179.66357422 C-197.53942612 178.73864166 -197.45458466 177.81370911 -197.36717224 176.86074829 C-197.23762901 175.44854507 -197.23762901 175.44854507 -197.10546875 174.0078125 C-197.01777725 173.05063324 -196.93008575 172.09345398 -196.83973694 171.10726929 C-192.06530702 119.0936645 -192.06530702 119.0936645 -189.3125 94 C-189.20542725 93.01257813 -189.09835449 92.02515625 -188.98803711 91.0078125 C-188.22810174 84.29613934 -187.16325053 77.65295125 -186 71 C-195.77163956 93.80939992 -203.85025551 117.12800852 -211.5378418 140.7097168 C-214.42186417 149.52748603 -217.50549303 158.1630252 -221.1875 166.6875 C-221.65599365 167.78054443 -222.1244873 168.87358887 -222.60717773 169.99975586 C-237.61189561 204.69362797 -257.4229914 249.31242112 -294.6484375 265.125 C-296.76079798 265.85485212 -298.82604194 266.48623257 -301 267 C-302.06347656 267.27070312 -302.06347656 267.27070312 -303.1484375 267.546875 C-317.91349308 269.89310301 -331.67309265 268.42993382 -344 259.625 C-347.1696289 257.04967652 -349.68826626 254.36571569 -352 251 C-352.62068359 250.12021484 -352.62068359 250.12021484 -353.25390625 249.22265625 C-357.9962606 240.87809546 -357.24209391 228.96793049 -355.33984375 219.828125 C-353.20558984 213.87808381 -349.41707878 209.44189383 -345 205 C-342.24182532 207.63851417 -340.0018118 210.31840639 -337.8125 213.4375 C-333.58220831 218.98347637 -328.54578862 221.81807046 -322 224 C-305.91055663 225.30686557 -293.24023062 220.33668788 -281.0625 210 C-256.50504239 186.89836671 -243.38403499 153.025426 -230.40808105 122.62269592 C-219.57170412 97.25377393 -207.8098808 72.37947035 -195.36352539 47.76342773 C-192.41077255 41.9076536 -189.58728929 36.02686212 -187 30 C-213.60648444 36.73699781 -236.16264385 47.68440123 -251.375 71.5 C-262.42963328 90.46050831 -263.04381 107.68598145 -261 129 C-270.75381643 129.72250492 -278.46663762 126.223254 -285.95703125 120.05859375 C-292.41531908 113.55091175 -296.20088904 105.2037071 -296.33007812 96.03881836 C-296.14507682 73.2656722 -285.98715121 54.35492383 -269.90625 38.42016602 C-241.78014655 11.78283625 -203.15619637 8.43430996 -166.34942627 8.79400635 C-162.80201737 8.82525515 -159.25453947 8.83851404 -155.70703125 8.85351562 C-148.80452475 8.88524136 -141.90228219 8.93611859 -135 9 C-133.95136729 12.67448839 -134.22098931 14.92363236 -135.1171875 18.66796875 C-135.38958252 19.84383545 -135.66197754 21.01970215 -135.94262695 22.23120117 C-136.09365875 22.86980072 -136.24469055 23.50840027 -136.40029907 24.16635132 C-144.13296082 57.08994213 -149.52132757 90.55626289 -155.0479393 123.90604019 C-155.36837986 125.83514564 -155.69144084 127.76381524 -156.01455688 129.69247437 C-158.91884909 147.07998143 -161.24271295 164.45872299 -163 182 C-162.44820068 180.23595825 -162.44820068 180.23595825 -161.88525391 178.4362793 C-156.62977959 161.74039887 -149.37308328 146.16708658 -141.0390625 130.80078125 C-139.3261791 127.63859514 -137.73952491 124.43223044 -136.1875 121.1875 C-123.15913384 94.91422973 -105.36492283 69.94691254 -86 48 C-85.22011719 47.10925781 -84.44023437 46.21851563 -83.63671875 45.30078125 C-81.45345688 42.83848419 -79.24029781 40.41044701 -77 38 C-76.31808594 37.26394531 -75.63617188 36.52789062 -74.93359375 35.76953125 C-58.3691165 18.53393338 -25.48093019 -5.43721869 0 0 Z " fill="#0C0E0C" transform="translate(402,326)"/>
<path d="M0 0 C4.3250513 2.30669403 5.86978495 5.23167177 7.6171875 9.609375 C11.22176359 32.11958487 -7.96802257 65.09883224 -20.47045898 82.51171875 C-35.95241303 103.26964596 -35.95241303 103.26964596 -47 107 C-50.875 107.0625 -50.875 107.0625 -54 106 C-57.77747907 102.22252093 -58.19587141 98.22484958 -58.3125 93.0625 C-58.00569813 63.2106784 -44.52384362 32.17438463 -24.4765625 10.3359375 C-17.63187963 3.8799117 -9.70865138 -1.31095293 0 0 Z " fill="#F7F6F5" transform="translate(441,439)"/>
<path d="M0 0 C2.30275556 1.8670991 3.67823871 3.35647741 5 6 C6.36984744 20.52038285 -1.66329687 33.81275575 -10.42285156 44.78173828 C-23.73312859 60.53481051 -23.73312859 60.53481051 -33 63 C-36.4296875 63.1953125 -36.4296875 63.1953125 -39.875 63.125 C-41.02742187 63.10695313 -42.17984375 63.08890625 -43.3671875 63.0703125 C-44.23601563 63.04710937 -45.10484375 63.02390625 -46 63 C-47.55293683 58.29765528 -45.62702612 55.08899853 -43.625 50.8125 C-43.26140381 50.02020996 -42.89780762 49.22791992 -42.52319336 48.41162109 C-34.45281642 31.04489999 -25.44636349 11.70058814 -8.8125 0.9375 C-5.58070884 -0.13976372 -3.37824164 -0.51408025 0 0 Z " fill="#F7F6F5" transform="translate(791,432)"/>
<path d="M0 0 C0.33 0 0.66 0 1 0 C0.67 15.18 0.34 30.36 0 46 C-0.33 46 -0.66 46 -1 46 C-3.36096509 39.52128871 -3.23053565 33.40202165 -3.125 26.5625 C-3.11597656 25.44939453 -3.10695313 24.33628906 -3.09765625 23.18945312 C-3.0742224 20.45940977 -3.041414 17.7298199 -3 15 C-2.34 15 -1.68 15 -1 15 C-1.33 11.7 -1.66 8.4 -2 5 C-1.34 5 -0.68 5 0 5 C0 3.35 0 1.7 0 0 Z " fill="#111211" transform="translate(321,533)"/>
<path d="M0 0 C1.93651455 3.87302911 0.00156365 8.8117287 -0.75 12.9375 C-0.92015625 13.95263672 -1.0903125 14.96777344 -1.265625 16.01367188 C-1.4409375 16.98755859 -1.61625 17.96144531 -1.796875 18.96484375 C-2.03422363 20.30470337 -2.03422363 20.30470337 -2.27636719 21.67163086 C-3.06858993 24.22069573 -3.97102694 25.31208632 -6 27 C-6.33 26.34 -6.66 25.68 -7 25 C-7.99 25 -8.98 25 -10 25 C-7.80829335 16.1288064 -3.97839741 8.17478919 0 0 Z " fill="#F4F4F3" transform="translate(216,396)"/>
<path d="M0 0 C1.32 0.99 2.64 1.98 4 3 C3.04536988 5.91792602 2.08645759 8.83432395 1.125 11.75 C0.85558594 12.575 0.58617187 13.4 0.30859375 14.25 C0.04433594 15.04921875 -0.21992188 15.8484375 -0.4921875 16.671875 C-0.73308105 17.4050293 -0.97397461 18.13818359 -1.22216797 18.89355469 C-2.00769825 21.02084763 -2.94865673 22.99252946 -4 25 C-2.91531391 5.98337571 -2.91531391 5.98337571 -2 1 C-1.34 0.67 -0.68 0.34 0 0 Z " fill="#EFEFEE" transform="translate(242,487)"/>
<path d="M0 0 C0.33 0.66 0.66 1.32 1 2 C-0.01108289 4.45931043 -1.07695933 6.80691746 -2.25 9.1875 C-2.8812985 10.49296296 -3.51151252 11.79895093 -4.140625 13.10546875 C-4.61085083 14.06900269 -4.61085083 14.06900269 -5.09057617 15.05200195 C-5.99373939 16.98658969 -6.78148933 18.94472658 -7.56640625 20.9296875 C-8.03949219 21.94289063 -8.51257813 22.95609375 -9 24 C-11.6875 24.9375 -11.6875 24.9375 -14 25 C-12.71237343 22.38758644 -11.36959325 19.82330913 -9.94140625 17.28515625 C-9.55533203 16.59873047 -9.16925781 15.91230469 -8.77148438 15.20507812 C-8.37251953 14.49802734 -7.97355469 13.79097656 -7.5625 13.0625 C-6.96985352 12.00772461 -6.96985352 12.00772461 -6.36523438 10.93164062 C-4.29453109 7.25536708 -2.19390564 3.60477744 0 0 Z M-15 25 C-15 25.99 -15 26.98 -15 28 C-15.99 28.66 -16.98 29.32 -18 30 C-16.125 26.125 -16.125 26.125 -15 25 Z " fill="#EEEEED" transform="translate(899,519)"/>
<path d="M0 0 C2.79317714 2.68316141 5.15041963 5.44087298 7.4375 8.5625 C10.00442946 11.93712709 12.18721739 14.03583926 16 16 C16 16.66 16 17.32 16 18 C10.80546349 16.58330822 7.33817117 13.07891809 4 9 C4 8.34 4 7.68 4 7 C3.01 6.67 2.02 6.34 1 6 C-0.1875 3.4375 -0.1875 3.4375 -1 1 C-0.67 0.67 -0.34 0.34 0 0 Z " fill="#121312" transform="translate(57,531)"/>
<path d="M0 0 C0.66 0 1.32 0 2 0 C1.85957123 1.64630328 1.71250671 3.29204179 1.5625 4.9375 C1.48128906 5.85402344 1.40007812 6.77054688 1.31640625 7.71484375 C1 10 1 10 0 11 C-0.23192865 12.51469448 -0.41215238 14.03754562 -0.5625 15.5625 C-0.64628906 16.38878906 -0.73007812 17.21507812 -0.81640625 18.06640625 C-0.87699219 18.70449219 -0.93757813 19.34257813 -1 20 C-1.66 19.67 -2.32 19.34 -3 19 C-3.38614349 12.1781317 -2.00865708 6.50422293 0 0 Z " fill="#DBDBDA" transform="translate(464,525)"/>
<path d="M0 0 C0.33 0.99 0.66 1.98 1 3 C-2.57851316 8.80902272 -7.01580874 13.70869481 -13 17 C-11.63387799 13.90255505 -10.0959759 11.92333129 -7.625 9.625 C-4.5289764 6.63239263 -2.23758586 3.66964081 0 0 Z " fill="#E6E6E5" transform="translate(854,625)"/>
<path d="M0 0 C1.53445094 3.06890187 0.54984289 5.70094266 0 9 C-0.33 8.01 -0.66 7.02 -1 6 C-1.79664063 6.70576172 -1.79664063 6.70576172 -2.609375 7.42578125 C-3.31578125 8.04839844 -4.0221875 8.67101562 -4.75 9.3125 C-5.44609375 9.92738281 -6.1421875 10.54226563 -6.859375 11.17578125 C-8.85114506 12.87314734 -10.88898915 14.45477809 -13 16 C-11.3383196 11.87582937 -8.37661982 8.93445961 -5.375 5.75 C-4.859375 5.19570313 -4.34375 4.64140625 -3.8125 4.0703125 C-2.54574965 2.7097288 -1.27342185 1.35434163 0 0 Z " fill="#EBECEB" transform="translate(814,529)"/>
<path d="M0 0 C0.66 0.33 1.32 0.66 2 1 C1.690625 1.928125 1.38125 2.85625 1.0625 3.8125 C-0.3783156 8.77871546 -0.64694036 13.86205306 -1 19 C-3.46999683 16.53000317 -3.2968552 15.71785184 -3.3125 12.3125 C-3.23557664 7.49430031 -2.21537488 4.24613518 0 0 Z " fill="#DDDDDC" transform="translate(813,610)"/>
<path d="M0 0 C0.99 0.33 1.98 0.66 3 1 C2.53328373 6.41390868 1.75702189 10.20517932 -1 15 C-2.20220203 11.46905698 -1.79532349 8.87101018 -1.0625 5.25 C-0.86785156 4.26515625 -0.67320312 3.2803125 -0.47265625 2.265625 C-0.31667969 1.51796875 -0.16070312 0.7703125 0 0 Z " fill="#E8E8E7" transform="translate(247,445)"/>
<path d="M0 0 C1.37587839 2.75175678 0.84386277 4.48020592 0.375 7.5 C0.23835937 8.4796875 0.10171875 9.459375 -0.0390625 10.46875 C-1 13 -1 13 -3.5859375 14.34375 C-4.38257813 14.5603125 -5.17921875 14.776875 -6 15 C-4.36041242 9.76727367 -2.61047965 4.84803364 0 0 Z " fill="#E9EAE9" transform="translate(216,396)"/>
<path d="M0 0 C2 1 2 1 4.25 3.8125 C6.76164529 6.92963121 9.6206421 8.84949952 13 11 C13.33 11.66 13.66 12.32 14 13 C8.27125665 11.09041888 3.35791588 8.03687382 0 3 C0 2.01 0 1.02 0 0 Z " fill="#121212" transform="translate(708,560)"/>
<path d="M0 0 C-1.08403171 3.25209513 -1.79991716 3.91385694 -4.375 6 C-6.70711035 7.90538378 -8.90195513 9.83759792 -11 12 C-11.33 11.34 -11.66 10.68 -12 10 C-10.625 8 -10.625 8 -9 6 C-8.34 6 -7.68 6 -7 6 C-6.67 5.01 -6.34 4.02 -6 3 C-2.55555556 0 -2.55555556 0 0 0 Z " fill="#141514" transform="translate(335,385)"/>
<path d="M0 0 C-1.3609623 4.08288689 -3.47953322 4.88685817 -7.0625 7.1875 C-8.16722656 7.90292969 -9.27195312 8.61835937 -10.41015625 9.35546875 C-11.26480469 9.89816406 -12.11945312 10.44085937 -13 11 C-13 10.01 -13 9.02 -13 8 C-11.36935236 6.94228261 -9.69719127 5.94726954 -8 5 C-6.9805881 4.01979625 -5.97753644 3.02196992 -5 2 C-2 0 -2 0 0 0 Z " fill="#131413" transform="translate(552,558)"/>
<path d="M0 0 C0.33 0.66 0.66 1.32 1 2 C-0.00161449 4.59535989 -1.0623883 7.05454353 -2.25 9.5625 C-2.56324219 10.26052734 -2.87648438 10.95855469 -3.19921875 11.67773438 C-4.04824808 13.49381164 -5.0178389 15.25233098 -6 17 C-6.99 17.33 -7.98 17.66 -9 18 C-7.45614871 13.85967154 -5.48971062 10.06446947 -3.375 6.1875 C-3.05015625 5.59001953 -2.7253125 4.99253906 -2.390625 4.37695312 C-1.59620849 2.91662865 -0.79844624 1.45812509 0 0 Z " fill="#DEDFDE" transform="translate(899,519)"/>
<path d="M0 0 C3.1875 0.3125 3.1875 0.3125 5.5625 2.3125 C6.09875 2.9725 6.635 3.6325 7.1875 4.3125 C3.52083333 4.3125 -0.14583333 4.3125 -3.8125 4.3125 C-3.8125 0.42361111 -3.8125 0.42361111 0 0 Z " fill="#EEEEED" transform="translate(787.8125,431.6875)"/>
<path d="M0 0 C4.39158329 1.4638611 4.87947433 3.97831338 7 8 C7.99 7.67 8.98 7.34 10 7 C9.34 8.65 8.68 10.3 8 12 C5 11 5 11 3.8671875 9.2578125 C3.53976562 8.55398438 3.21234375 7.85015625 2.875 7.125 C2.37613281 6.07699219 2.37613281 6.07699219 1.8671875 5.0078125 C1 3 1 3 0 0 Z " fill="#141514" transform="translate(454,426)"/>
<path d="M0 0 C0.99 0.33 1.98 0.66 3 1 C2.01 4.3 1.02 7.6 0 11 C-0.99 11 -1.98 11 -3 11 C-2.01 7.37 -1.02 3.74 0 0 Z " fill="#141514" transform="translate(540,402)"/>
<path d="M0 0 C2.05279359 4.10558718 2.2216942 5.80206685 2.125 10.25 C2.10695312 11.32765625 2.08890625 12.4053125 2.0703125 13.515625 C2.03550781 14.74539063 2.03550781 14.74539063 2 16 C1.01 16 0.02 16 -1 16 C-0.67 10.72 -0.34 5.44 0 0 Z " fill="#191919" transform="translate(200,546)"/>
<path d="M0 0 C0.66 0 1.32 0 2 0 C2 0.66 2 1.32 2 2 C0.217871 3.44074715 -1.62660276 4.80510649 -3.5 6.125 C-5.03140625 7.21167969 -5.03140625 7.21167969 -6.59375 8.3203125 C-7.3878125 8.87460937 -8.181875 9.42890625 -9 10 C-9.66 9.34 -10.32 8.68 -11 8 C-10.34 7.67 -9.68 7.34 -9 7 C-8.67 6.01 -8.34 5.02 -8 4 C-5.69747517 2.93097061 -3.3627974 1.92824183 -1 1 C-0.67 0.67 -0.34 0.34 0 0 Z " fill="#131413" transform="translate(787,553)"/>
<path d="M0 0 C1.5471219 2.4571936 2.04484402 3.632279 1.6875 6.5625 C1.17232879 8.38901612 0.60013019 10.19960942 0 12 C-0.99 12 -1.98 12 -3 12 C-2.68950274 10.56206608 -2.3765224 9.1246682 -2.0625 7.6875 C-1.88847656 6.88699219 -1.71445312 6.08648437 -1.53515625 5.26171875 C-1 3 -1 3 0 0 Z " fill="#E8E7E7" transform="translate(940,502)"/>
<path d="M0 0 C0.66 0 1.32 0 2 0 C1.71617054 1.75128818 1.42260471 3.50100003 1.125 5.25 C0.96257812 6.22453125 0.80015625 7.1990625 0.6328125 8.203125 C0.05144152 10.77264117 -0.70840265 12.72071056 -2 15 C-2.33 15 -2.66 15 -3 15 C-2.5547115 9.72684667 -1.91626837 4.98229776 0 0 Z " fill="#E3E3E2" transform="translate(143,410)"/>
<path d="M0 0 C0 3 0 3 -2 5.1875 C-2.66 5.785625 -3.32 6.38375 -4 7 C-4 4 -4 4 -2 1.8125 C-1.34 1.214375 -0.68 0.61625 0 0 Z M-7 6 C-6.34 6.33 -5.68 6.66 -5 7 C-5.99 7.66 -6.98 8.32 -8 9 C-7.67 8.01 -7.34 7.02 -7 6 Z M-10 9 C-9.34 9.33 -8.68 9.66 -8 10 C-9.65 11.32 -11.3 12.64 -13 14 C-11.125 10.125 -11.125 10.125 -10 9 Z " fill="#D3D4D3" transform="translate(339,382)"/>
<path d="M0 0 C0.66 0 1.32 0 2 0 C1.19924675 3.26520744 0.32533815 6.50746067 -0.5625 9.75 C-0.83191406 10.73484375 -1.10132813 11.7196875 -1.37890625 12.734375 C-1.58386719 13.48203125 -1.78882813 14.2296875 -2 15 C-2.66 14.34 -3.32 13.68 -4 13 C-3.5985369 8.45008485 -1.64532419 4.22061424 0 0 Z " fill="#151615" transform="translate(874,582)"/>
<path d="M0 0 C0.66 1.32 1.32 2.64 2 4 C1.34 4 0.68 4 0 4 C0 5.65 0 7.3 0 9 C-0.66 9 -1.32 9 -2 9 C-2.12375 9.804375 -2.2475 10.60875 -2.375 11.4375 C-2.58125 12.283125 -2.7875 13.12875 -3 14 C-3.99 14.495 -3.99 14.495 -5 15 C-4.54705135 13.24859857 -4.08741252 11.49892656 -3.625 9.75 C-3.36976563 8.77546875 -3.11453125 7.8009375 -2.8515625 6.796875 C-2.10401491 4.34162697 -1.22876183 2.24382595 0 0 Z " fill="#E6E6E5" transform="translate(593,362)"/>
<path d="M0 0 C1.99390001 3.98780002 2.22686963 5.47147572 2.125 9.75 C2.10695312 10.73484375 2.08890625 11.7196875 2.0703125 12.734375 C2.04710937 13.48203125 2.02390625 14.2296875 2 15 C1.01 15.33 0.02 15.66 -1 16 C-0.67 10.72 -0.34 5.44 0 0 Z " fill="#1C1C1B" transform="translate(205,497)"/>
<path d="M0 0 C0.66 0 1.32 0 2 0 C1.40802528 4.85419266 0.13607512 8.64240676 -2 13 C-2.99 13.495 -2.99 13.495 -4 14 C-3.52188823 12.22888156 -3.0424722 10.45811517 -2.5625 8.6875 C-2.29566406 7.70136719 -2.02882813 6.71523438 -1.75390625 5.69921875 C-1.21920575 3.78482474 -0.62855462 1.88566385 0 0 Z " fill="#151515" transform="translate(545,387)"/>
<path d="M0 0 C2.3828125 -0.29296875 2.3828125 -0.29296875 5.125 -0.1875 C6.03507813 -0.16042969 6.94515625 -0.13335938 7.8828125 -0.10546875 C8.58148437 -0.07066406 9.28015625 -0.03585937 10 0 C9.67 0.99 9.34 1.98 9 3 C8.01 3.33 7.02 3.66 6 4 C6 3.34 6 2.68 6 2 C3.36 2.33 0.72 2.66 -2 3 C-1.34 2.01 -0.68 1.02 0 0 Z " fill="#222221" transform="translate(818,597)"/>
<path d="M0 0 C0.66 0.33 1.32 0.66 2 1 C1.8125 3.375 1.8125 3.375 1 6 C-1.5625 7.3125 -1.5625 7.3125 -4 8 C-2.87548273 5.0280615 -1.77706209 2.66559313 0 0 Z M-5 8 C-5 8.99 -5 9.98 -5 11 C-5.99 11.66 -6.98 12.32 -8 13 C-6.125 9.125 -6.125 9.125 -5 8 Z " fill="#EAEBEA" transform="translate(814,473)"/>
<path d="M0 0 C0.33 0.66 0.66 1.32 1 2 C-2.96 7.94 -2.96 7.94 -7 14 C-7.66 13.34 -8.32 12.68 -9 12 C-7.68858144 10.18671738 -6.37583526 8.37439486 -5.0625 6.5625 C-3.96615234 5.04849609 -3.96615234 5.04849609 -2.84765625 3.50390625 C-1 1 -1 1 0 0 Z " fill="#121212" transform="translate(768,444)"/>
<path d="M0 0 C1.73684533 3.47369066 2.30084112 5.07619937 2.625 8.75 C2.69976563 9.54921875 2.77453125 10.3484375 2.8515625 11.171875 C2.90054688 11.77515625 2.94953125 12.3784375 3 13 C2.01 13.33 1.02 13.66 0 14 C0 9.38 0 4.76 0 0 Z " fill="#E9E9E8" transform="translate(613,523)"/>
<path d="M0 0 C0.99 0 1.98 0 3 0 C2.34 2.31 1.68 4.62 1 7 C0.34 7 -0.32 7 -1 7 C-1 7.99 -1 8.98 -1 10 C-1.66 10 -2.32 10 -3 10 C-2.39009109 6.44219804 -1.4216319 3.3171411 0 0 Z " fill="#151615" transform="translate(305,453)"/>
<path d="M0 0 C1.18771723 3.42943519 0.80226223 5.37784675 -0.4375 8.75 C-0.86869141 9.94882812 -0.86869141 9.94882812 -1.30859375 11.171875 C-1.53675781 11.77515625 -1.76492188 12.3784375 -2 13 C-3.1171875 11.296875 -3.1171875 11.296875 -4 9 C-3.3203125 6.640625 -3.3203125 6.640625 -2.125 4.25 C-1.73570312 3.45078125 -1.34640625 2.6515625 -0.9453125 1.828125 C-0.63335938 1.22484375 -0.32140625 0.6215625 0 0 Z " fill="#F0F0EF" transform="translate(541,395)"/>
<path d="M0 0 C1.485 0.99 1.485 0.99 3 2 C3.36328125 3.875 3.36328125 3.875 3.3125 6 C3.30863281 6.70125 3.30476562 7.4025 3.30078125 8.125 C3 10 3 10 1 12 C-0.26237731 9.47524538 -0.09856404 7.68799534 -0.0625 4.875 C-0.05347656 3.96492187 -0.04445313 3.05484375 -0.03515625 2.1171875 C-0.02355469 1.41851563 -0.01195312 0.71984375 0 0 Z " fill="#CACBCA" transform="translate(535,533)"/>
<path d="M0 0 C0.99 0 1.98 0 3 0 C2.01 3.3 1.02 6.6 0 10 C-0.99 10 -1.98 10 -3 10 C-2.690625 9.0925 -2.38125 8.185 -2.0625 7.25 C-1.2727737 4.83436662 -0.57050703 2.47219715 0 0 Z " fill="#141514" transform="translate(865,486)"/>
<path d="M0 0 C0.66 0 1.32 0 2 0 C2 0.99 2 1.98 2 3 C2.66 3 3.32 3 4 3 C6.125 7.625 6.125 7.625 5 11 C4.15841464 9.73461631 3.32700252 8.46246221 2.5 7.1875 C1.80390625 6.12595703 1.80390625 6.12595703 1.09375 5.04296875 C0 3 0 3 0 0 Z " fill="#141414" transform="translate(815,556)"/>
<path d="M0 0 C0.33 0 0.66 0 1 0 C1 4.29 1 8.58 1 13 C0.67 13 0.34 13 0 13 C-0.185625 11.6078125 -0.185625 11.6078125 -0.375 10.1875 C-0.81533082 6.86074765 -0.81533082 6.86074765 -3 4 C-2.02727325 2.64664105 -1.0260734 1.31337396 0 0 Z " fill="#D8D9D8" transform="translate(574,534)"/>
<path d="M0 0 C1.32 0.33 2.64 0.66 4 1 C3.278125 1.556875 2.55625 2.11375 1.8125 2.6875 C-0.97457299 4.97909334 -3.48641528 7.41459857 -6 10 C-5.49477778 5.62140745 -2.82172778 3.18348776 0 0 Z " fill="#191A19" transform="translate(812,528)"/>
<path d="M0 0 C0.66 1.32 1.32 2.64 2 4 C1.01 4.33 0.02 4.66 -1 5 C-1.69258229 6.99117408 -2.35747635 8.9921136 -3 11 C-4.625 12.875 -4.625 12.875 -6 14 C-4.50829734 9.0276578 -2.39542583 4.58154261 0 0 Z " fill="#E1E2E1" transform="translate(268,483)"/>
<path d="M0 0 C0.99 0.33 1.98 0.66 3 1 C0.36 2.98 -2.28 4.96 -5 7 C-5.99 6.34 -6.98 5.68 -8 5 C-6.35 4.67 -4.7 4.34 -3 4 C-3 3.34 -3 2.68 -3 2 C-2.01 1.34 -1.02 0.68 0 0 Z " fill="#151615" transform="translate(472,560)"/>
<path d="M0 0 C0.33 0 0.66 0 1 0 C1 3.96 1 7.92 1 12 C0.01 11.67 -0.98 11.34 -2 11 C-2 9.02 -2 7.04 -2 5 C-1.34 5 -0.68 5 0 5 C0 3.35 0 1.7 0 0 Z " fill="#161715" transform="translate(321,533)"/>
<path d="M0 0 C0.33 0 0.66 0 1 0 C1.66 3.96 2.32 7.92 3 12 C2.01 12.33 1.02 12.66 0 13 C0 8.71 0 4.42 0 0 Z " fill="#E3E3E2" transform="translate(853,528)"/>
<path d="M0 0 C0.66 0 1.32 0 2 0 C1.45276317 3.37462715 0.9451 5.08235 -1 8 C-1.66 7.67 -2.32 7.34 -3 7 C-1.125 1.125 -1.125 1.125 0 0 Z " fill="#232322" transform="translate(500,421)"/>
<path d="M0 0 C1.32 0.33 2.64 0.66 4 1 C3.67 3.64 3.34 6.28 3 9 C0.23776722 6.23776722 0.42143709 3.79293383 0 0 Z " fill="#131413" transform="translate(888,421)"/>
<path d="M0 0 C3 0 3 0 5.0625 1.9375 C5.701875 2.618125 6.34125 3.29875 7 4 C7.66 4.33 8.32 4.66 9 5 C9 5.66 9 6.32 9 7 C5.21616321 6.07506212 3.43306306 5.60628829 1.125 2.375 C0.75375 1.59125 0.3825 0.8075 0 0 Z " fill="#121312" transform="translate(739,545)"/>
<path d="M0 0 C1 2 1 2 0.25 5 C-1 8 -1 8 -4 10 C-3.52449439 8.51965236 -3.04448784 7.04074979 -2.5625 5.5625 C-2.29566406 4.73878906 -2.02882813 3.91507812 -1.75390625 3.06640625 C-1 1 -1 1 0 0 Z " fill="#ECECEC" transform="translate(342,456)"/>
<path d="M0 0 C1.09658936 3.28976808 0.79953138 4.71303767 0 8 C-0.99 8 -1.98 8 -3 8 C-2.74438677 5.6568787 -2.40729228 3.32156597 -2 1 C-1.34 0.67 -0.68 0.34 0 0 Z " fill="#ECECEB" transform="translate(265,357)"/>
<path d="M0 0 C1 2 1 2 0.1875 5.5625 C-1 9 -1 9 -3 10 C-2.25 2.25 -2.25 2.25 0 0 Z " fill="#151514" transform="translate(289,505)"/>
<path d="M0 0 C0.66 0 1.32 0 2 0 C1.34 2.64 0.68 5.28 0 8 C-0.99 7.67 -1.98 7.34 -3 7 C-3 5.68 -3 4.36 -3 3 C-2.01 3 -1.02 3 0 3 C0 2.01 0 1.02 0 0 Z " fill="#E1E2E1" transform="translate(242,493)"/>
<path d="M0 0 C2.95929119 2.75520215 5.03681826 5.46627288 7 9 C2.79373966 7.49776416 1.26099979 4.71449966 -1 1 C-0.67 0.67 -0.34 0.34 0 0 Z " fill="#F1F1F1" transform="translate(289,598)"/>
<path d="M0 0 C0.99 0 1.98 0 3 0 C2.1875 2.9375 2.1875 2.9375 1 6 C0.01 6.33 -0.98 6.66 -2 7 C-1.34 4.69 -0.68 2.38 0 0 Z " fill="#EFEFEE" transform="translate(921,560)"/>
<path d="M0 0 C-1.39332574 3.36720387 -2.9789286 4.9859524 -6 7 C-6 4 -6 4 -4.125 1.8125 C-2 0 -2 0 0 0 Z " fill="#222323" transform="translate(777,436)"/>
<path d="M0 0 C0.99 0.33 1.98 0.66 3 1 C2.34 1.66 1.68 2.32 1 3 C0.67 2.01 0.34 1.02 0 0 Z M-1 2 C-0.67 3.32 -0.34 4.64 0 6 C-1.98 6.99 -1.98 6.99 -4 8 C-2.125 3.125 -2.125 3.125 -1 2 Z " fill="#131414" transform="translate(283,418)"/>
<path d="M0 0 C4.75 1.875 4.75 1.875 7 3 C7 3.66 7 4.32 7 5 C4.61435923 4.42415568 2.33317216 3.77772405 0 3 C0 2.01 0 1.02 0 0 Z " fill="#141514" transform="translate(695,482)"/>
<path d="M0 0 C0.99 0.33 1.98 0.66 3 1 C2.67 2.32 2.34 3.64 2 5 C1.34 5 0.68 5 0 5 C-0.33 5.99 -0.66 6.98 -1 8 C-2.2077558 4.37673261 -1.54311128 3.35853631 0 0 Z " fill="#181817" transform="translate(597,466)"/>
<path d="M0 0 C0.99 0 1.98 0 3 0 C2.64950425 3.24208567 2.43778819 4.61527704 -0.0625 6.8125 C-0.701875 7.204375 -1.34125 7.59625 -2 8 C-1.34 5.36 -0.68 2.72 0 0 Z " fill="#141513" transform="translate(520,465)"/>
<path d="M0 0 C2.1519437 3.22791555 2.20086443 4.28400809 2 8 C0.02 8.99 0.02 8.99 -2 10 C-1.34 6.7 -0.68 3.4 0 0 Z " fill="#D8D8D7" transform="translate(704,451)"/>
<path d="M0 0 C0.66 0.33 1.32 0.66 2 1 C-0.75 7.875 -0.75 7.875 -3 9 C-2.01 6.03 -1.02 3.06 0 0 Z " fill="#1A1A1A" transform="translate(671,426)"/>
</svg>
